<svg width="136" height="26" viewBox="0 0 136 26" fill="none" xmlns="http://www.w3.org/2000/svg">
<path d="M21.652 11.824L17.152 21.04C16.768 21.808 16.36 22.36 15.928 22.696C15.496 23.008 14.98 23.164 14.38 23.164C13.612 23.164 12.964 22.9 12.436 22.372C11.908 21.82 11.224 20.836 10.384 19.42L6.208 11.824V22.012C6.208 23.044 5.968 23.8 5.488 24.28C5.032 24.76 4.336 25 3.4 25C2.344 25 1.576 24.772 1.096 24.316C0.616 23.836 0.376 22.912 0.376 21.544V5.848C0.376 4 0.796 2.608 1.636 1.672C2.476 0.735999 3.892 0.267999 5.884 0.267999C6.628 0.267999 7.276 0.399998 7.828 0.663998C8.38 0.903999 8.788 1.192 9.052 1.528C9.34 1.84 9.616 2.236 9.88 2.716L14.704 13.264L19.816 2.896C20.704 1.168 22.3 0.303998 24.604 0.303998C25.684 0.303998 26.608 0.495999 27.376 0.879999C28.144 1.24 28.744 1.84 29.176 2.68C29.632 3.496 29.86 4.528 29.86 5.776V21.436C29.836 23.812 28.336 25 25.36 25C24.28 25 23.392 24.712 22.696 24.136C22.024 23.536 21.676 22.576 21.652 21.256V11.824ZM43.0248 25.216C40.0968 25.216 37.6728 24.46 35.7528 22.948C33.8568 21.436 32.9088 19.372 32.9088 16.756C32.9088 13.924 33.8448 11.692 35.7168 10.06C37.6128 8.404 40.0488 7.576 43.0248 7.576C45.8328 7.576 47.8848 8.08 49.1808 9.088C50.5008 10.072 51.1608 11.428 51.1608 13.156C51.1608 13.492 51.1128 13.816 51.0168 14.128C50.9448 14.44 50.8128 14.752 50.6208 15.064C50.4528 15.352 50.2128 15.628 49.9008 15.892C49.6128 16.132 49.2768 16.36 48.8928 16.576C48.5088 16.768 48.0528 16.924 47.5248 17.044C46.9968 17.14 46.4328 17.188 45.8328 17.188L40.7568 17.224C40.9968 17.992 41.4288 18.604 42.0527 19.06C42.6768 19.492 43.4688 19.708 44.4288 19.708C45.4608 19.708 46.5168 19.576 47.5968 19.312C48.0528 19.192 48.5448 19 49.0728 18.736C49.6248 18.472 50.0208 18.34 50.2608 18.34C50.6688 18.34 50.9808 18.46 51.1968 18.7C51.4368 18.94 51.5568 19.24 51.5568 19.6C51.5568 20.032 51.3648 20.56 50.9808 21.184C50.5968 21.784 50.0568 22.396 49.3608 23.02C48.6888 23.62 47.7888 24.136 46.6608 24.568C45.5328 25 44.3208 25.216 43.0248 25.216ZM40.5768 14.92C42.2328 14.896 43.1328 14.884 43.2768 14.884C43.6368 14.884 43.9008 14.668 44.0688 14.236C44.1888 13.924 44.2488 13.492 44.2488 12.94C44.2488 11.428 43.7928 10.672 42.8808 10.672C42.5448 10.672 42.2088 10.852 41.8728 11.212C41.5608 11.572 41.2848 12.088 41.0448 12.76C40.8048 13.408 40.6488 14.128 40.5768 14.92ZM75.8829 15.496C75.8829 14.152 75.3429 13.48 74.2629 13.48C73.7829 13.48 73.4229 13.756 73.1829 14.308C72.9429 14.86 72.8229 15.556 72.8229 16.396C72.8229 17.668 72.7989 18.724 72.7509 19.564C72.7269 20.404 72.6549 21.16 72.5349 21.832C72.4149 22.504 72.2709 23.032 72.1029 23.416C71.9349 23.8 71.7069 24.124 71.4189 24.388C71.1309 24.628 70.8069 24.796 70.4469 24.892C70.0869 24.964 69.6309 25 69.0789 25C68.2389 25 67.5549 24.88 67.0269 24.64C66.5229 24.4 66.1629 24.064 65.9469 23.632C65.7309 23.2 65.6229 22.66 65.6229 22.012V15.496C65.6229 14.152 65.0829 13.48 64.0029 13.48C63.5709 13.48 63.2109 13.732 62.9229 14.236C62.6589 14.716 62.5269 15.352 62.5269 16.144V21.148C62.5269 22.588 62.2269 23.596 61.6269 24.172C61.0269 24.724 59.9709 25 58.4589 25C57.0429 25 56.0709 24.676 55.5429 24.028C55.0389 23.356 54.7869 22.264 54.7869 20.752V11.896C54.7869 10.672 55.1109 9.688 55.7589 8.944C56.4309 8.2 57.3189 7.828 58.4229 7.828C60.3909 7.828 61.6389 8.464 62.1669 9.736C63.0789 9.064 63.9669 8.596 64.8309 8.332C65.7189 8.068 66.7509 7.936 67.9269 7.936C69.7029 7.936 70.9869 8.704 71.7789 10.24C71.8989 10.144 72.0189 10.048 72.1389 9.952C73.9869 8.608 76.2549 7.936 78.9429 7.936C80.6469 7.936 81.8709 8.584 82.6149 9.88C83.3589 11.176 83.7309 13.348 83.7309 16.396C83.7309 17.668 83.7069 18.724 83.6589 19.564C83.6349 20.404 83.5629 21.16 83.4429 21.832C83.3229 22.504 83.1669 23.032 82.9749 23.416C82.8069 23.8 82.5549 24.124 82.2189 24.388C81.9069 24.628 81.5469 24.796 81.1389 24.892C80.7549 24.964 80.2629 25 79.6629 25C78.7509 25 78.0069 24.88 77.4309 24.64C76.8789 24.4 76.4829 24.064 76.2429 23.632C76.0029 23.2 75.8829 22.66 75.8829 22.012V15.496ZM98.7528 16.468C98.7528 15.22 98.5968 14.128 98.2848 13.192C97.9728 12.232 97.5168 11.752 96.9168 11.752C96.5088 11.752 96.1488 11.992 95.8368 12.472C95.5248 12.952 95.2968 13.54 95.1528 14.236C95.0088 14.932 94.9368 15.676 94.9368 16.468C94.9368 17.692 95.1048 18.772 95.4408 19.708C95.7768 20.62 96.2568 21.076 96.8808 21.076C97.5048 21.076 97.9728 20.62 98.2848 19.708C98.5968 18.796 98.7528 17.716 98.7528 16.468ZM96.8808 25.252C95.0088 25.252 93.3168 24.916 91.8048 24.244C90.3168 23.572 89.1168 22.564 88.2048 21.22C87.3168 19.876 86.8728 18.304 86.8728 16.504C86.8728 13.768 87.8088 11.596 89.6808 9.988C91.5528 8.38 93.9528 7.576 96.8808 7.576C99.8088 7.576 102.197 8.38 104.045 9.988C105.893 11.596 106.817 13.768 106.817 16.504C106.817 19.216 105.869 21.352 103.973 22.912C102.101 24.472 99.7368 25.252 96.8808 25.252ZM109.728 2.824C109.728 2.032 110.064 1.384 110.736 0.879999C111.432 0.351999 112.404 0.0879989 113.652 0.0879989C116.268 0.0879989 117.576 0.999999 117.576 2.824C117.576 3.832 117.24 4.54 116.568 4.948C115.92 5.356 114.948 5.56 113.652 5.56C112.524 5.56 111.588 5.344 110.844 4.912C110.1 4.48 109.728 3.784 109.728 2.824ZM117.54 21.148C117.54 22.588 117.24 23.596 116.64 24.172C116.04 24.724 114.984 25 113.472 25C112.056 25 111.084 24.676 110.556 24.028C110.052 23.356 109.8 22.264 109.8 20.752V11.896C109.8 10.672 110.124 9.688 110.772 8.944C111.444 8.2 112.332 7.828 113.436 7.828C114.732 7.828 115.74 8.116 116.46 8.692C117.18 9.244 117.54 10.276 117.54 11.788V21.148ZM128.544 21.148C128.544 22.588 128.244 23.596 127.644 24.172C127.044 24.724 125.976 25 124.44 25C123.024 25 122.064 24.676 121.56 24.028C121.056 23.356 120.804 22.264 120.804 20.752V11.896C120.804 11.08 120.948 10.372 121.236 9.772C121.524 9.148 121.944 8.668 122.496 8.332C123.048 7.996 123.696 7.828 124.44 7.828C126.264 7.828 127.464 8.356 128.04 9.412C129.432 8.356 130.776 7.828 132.072 7.828C134.592 7.828 135.852 9.028 135.852 11.428C135.852 12.388 135.576 13.168 135.024 13.768C134.472 14.368 133.752 14.668 132.864 14.668C132.336 14.668 131.904 14.56 131.568 14.344C131.256 14.128 130.956 13.912 130.668 13.696C130.404 13.48 130.092 13.372 129.732 13.372C129.204 13.372 128.808 13.552 128.544 13.912V21.148Z" fill="#4F4EED"/>
</svg>
